HIERARCHY
ROOT root
{
	OFFSET 0.000000 0.000000 0.000000
	CHANNELS 6 Xposition Yposition Zposition Zrotation Yrotation Xrotation
	JOINT lhip
	{
		OFFSET 0.058581 -0.082280 -0.017664
		CHANNELS 3 Zrotation Yrotation Xrotation
		JOINT lknee
		{
			OFFSET 0.043451 -0.386469 0.008037
			CHANNELS 3 Zrotation Yrotation Xrotation
			JOINT lankle
			{
				OFFSET -0.014790 -0.426874 -0.037428
				CHANNELS 3 Zrotation Yrotation Xrotation
				JOINT ltoe
				{
					OFFSET 0.041054 -0.060286 0.122042
					CHANNELS 3 Zrotation Yrotation Xrotation
					End Site
					{
						OFFSET 0.000000 0.000000 0.000000
					}
				}
			}
		}
	}
	JOINT rhip
	{
		OFFSET -0.060310 -0.090513 -0.013543
		CHANNELS 3 Zrotation Yrotation Xrotation
		JOINT rknee
		{
			OFFSET -0.043257 -0.383688 -0.004843
			CHANNELS 3 Zrotation Yrotation Xrotation
			JOINT rankle
			{
				OFFSET 0.019056 -0.420046 -0.034562
				CHANNELS 3 Zrotation Yrotation Xrotation
				JOINT rtoe
				{
					OFFSET -0.034840 -0.062106 0.130323
					CHANNELS 3 Zrotation Yrotation Xrotation
					End Site
					{
						OFFSET 0.000000 0.000000 0.000000
					}
				}
			}
		}
	}
	JOINT lowerback
	{
		OFFSET 0.004439 0.124404 -0.038385
		CHANNELS 3 Zrotation Yrotation Xrotation
		JOINT upperback
		{
			OFFSET 0.004488 0.137956 0.026820
			CHANNELS 3 Zrotation Yrotation Xrotation
			JOINT chest
			{
				OFFSET -0.002265 0.056032 0.002855
				CHANNELS 3 Zrotation Yrotation Xrotation
				JOINT lowerneck
				{
					OFFSET -0.013390 0.211636 -0.033468
					CHANNELS 3 Zrotation Yrotation Xrotation
					JOINT upperneck
					{
						OFFSET 0.010113 0.088937 0.050410
						CHANNELS 3 Zrotation Yrotation Xrotation
						End Site
						{
							OFFSET 0.000000 0.000000 0.000000
						}
					}
				}
				JOINT lclavicle
				{
					OFFSET 0.071702 0.114000 -0.018898
					CHANNELS 3 Zrotation Yrotation Xrotation
					JOINT lshoulder
					{
						OFFSET 0.122921 0.045205 -0.019046
						CHANNELS 3 Zrotation Yrotation Xrotation
						JOINT lelbow
						{
							OFFSET 0.255332 -0.015649 -0.022946
							CHANNELS 3 Zrotation Yrotation Xrotation
							JOINT lwrist
							{
								OFFSET 0.265709 0.012698 -0.007375
								CHANNELS 3 Zrotation Yrotation Xrotation
								End Site
								{
									OFFSET 0.000000 0.000000 0.000000
								}
							}
						}
					}
				}
				JOINT rclavicle
				{
					OFFSET -0.082954 0.112472 -0.023707
					CHANNELS 3 Zrotation Yrotation Xrotation
					JOINT rshoulder
					{
						OFFSET -0.113228 0.046853 -0.008472
						CHANNELS 3 Zrotation Yrotation Xrotation
						JOINT relbow
						{
							OFFSET -0.260127 -0.014369 -0.031269
							CHANNELS 3 Zrotation Yrotation Xrotation
							JOINT rwrist
							{
								OFFSET -0.269108 0.006794 -0.006027
								CHANNELS 3 Zrotation Yrotation Xrotation
								End Site
								{
									OFFSET 0.000000 0.000000 0.000000
								}
							}
						}
					}
				}
			}
		}
	}
}
MOTION
Frames: 5
Frame Time: 0.033333
-1.310176 0.505491 1.455660 81.189531 -1.665645 97.293290 -0.535219 -4.596907 -26.204946 -1.807318 18.052697 19.867713 6.247691 16.396156 -6.977140 0.000000 -0.000000 0.000000 -5.245645 -3.615491 -16.344537 -2.930015 -19.584231 28.592269 7.823414 -16.042031 -12.152571 0.000000 -0.000000 0.000000 -0.206050 3.983112 16.103522 -3.047214 0.234427 -15.268805 -3.264300 -0.737550 10.138252 -1.189752 2.218441 -2.630301 -2.546429 1.528693 26.948088 -20.526232 11.799780 -2.300749 -60.181644 -4.951407 9.931602 4.097418 -24.982865 15.650406 -12.807357 -13.554783 -11.658951 13.149667 -7.479981 -3.749611 63.063274 5.115517 21.754818 -11.715894 48.387878 4.357689 9.079471 10.675425 -22.407635 
-1.298317 0.507826 1.454842 82.536419 -1.678264 96.753893 -1.162716 -5.123866 -25.065218 -2.078052 16.828908 20.055947 6.924663 17.046867 -7.876207 0.000000 -0.000000 0.000000 -6.468676 -3.299896 -17.402546 -3.328691 -18.858028 34.004421 8.440374 -15.115654 -10.716889 0.000000 -0.000000 0.000000 -0.278862 3.792498 16.121703 -2.709600 0.028368 -15.086872 -3.306294 -0.977102 10.195664 -1.033776 2.171617 -2.633950 -3.145968 1.341664 27.462381 -20.523528 11.512531 -2.498364 -60.139989 -4.863166 9.922639 4.185447 -25.479302 15.348685 -12.959022 -13.575091 -10.837132 13.521002 -7.420604 -4.124277 62.148021 5.175695 22.023903 -11.907790 51.067632 4.944232 10.622918 11.208157 -21.156159 
-1.286568 0.510681 1.455239 83.625949 -1.714733 96.462149 -1.703246 -5.773360 -23.773153 -2.447891 15.864856 19.535306 7.777521 17.696241 -8.415586 0.000000 -0.000000 0.000000 -8.054452 -2.732140 -20.716322 -4.571527 -19.514494 42.552456 9.358470 -15.856442 -6.637539 0.000000 -0.000000 0.000000 -0.731586 3.145080 15.954476 -2.264390 0.389076 -14.977987 -3.267863 -1.105546 10.269073 -0.746072 2.010416 -2.747380 -3.792082 1.277963 28.096431 -20.232819 11.313781 -2.524142 -60.346675 -5.415437 10.184169 4.563674 -25.571267 14.435540 -11.990212 -13.541218 -9.932575 13.861116 -7.490594 -4.328938 61.642269 5.361776 22.576816 -12.807387 52.265552 3.996048 11.357711 11.534605 -20.043626 
-1.276054 0.513534 1.456723 84.501822 -1.969833 96.660117 -2.292546 -7.366510 -22.689042 -2.964502 15.358787 18.182936 9.527225 19.050707 -8.403845 0.000000 -0.000000 0.000000 -10.249845 -1.540924 -26.549546 -6.129525 -20.185379 53.209402 9.350634 -18.729610 0.915296 0.000000 -0.000000 0.000000 -1.653608 2.145265 14.873735 -1.703076 1.116376 -14.374571 -3.295519 -1.246120 10.505533 -0.458752 1.594855 -2.939773 -4.209555 1.618330 28.245016 -19.738674 11.127386 -2.236289 -60.367747 -6.657113 10.922473 4.965819 -25.802017 12.579410 -9.631062 -13.531436 -9.927875 14.128446 -7.594126 -4.467444 61.607720 5.856570 23.908961 -14.546182 51.955864 1.344619 11.488542 11.679386 -19.339128 
-1.265790 0.515327 1.458475 85.283474 -2.033623 97.002402 -2.560350 -8.948068 -21.817473 -3.402893 14.924331 16.998231 11.140351 20.340705 -8.260855 0.000000 -0.000000 0.000000 -12.326010 -0.545492 -32.596669 -7.181046 -20.967097 62.059891 6.291467 -21.903574 9.771250 0.000000 -0.000000 0.000000 -2.277365 1.243254 13.646060 -1.257643 1.738543 -13.601514 -3.297897 -1.573892 10.589665 -0.563064 1.050696 -2.618381 -4.175596 2.373980 27.580016 -19.386398 10.808073 -1.837306 -59.616008 -7.892059 11.416526 4.909793 -26.651549 10.895430 -7.815327 -13.496191 -10.364576 14.463845 -7.592922 -4.330406 61.413155 6.403586 25.109210 -15.775238 51.116671 -0.832479 11.307018 11.718155 -19.189726 
